<svg width="29" height="22" viewBox="0 0 29 22" fill="none" xmlns="http://www.w3.org/2000/svg">
<path d="M28.105 4.09133C27.7763 2.85846 26.8037 1.88585 25.5662 1.55252C23.3288 0.954346 14.3516 0.954346 14.3516 0.954346C14.3516 0.954346 5.379 0.954346 3.13699 1.55252C1.90411 1.88129 0.931508 2.85389 0.598174 4.09133C0 6.32878 0 11 0 11C0 11 0 15.6713 0.598174 17.9087C0.926941 19.1416 1.89954 20.1142 3.13699 20.4475C5.379 21.0457 14.3516 21.0457 14.3516 21.0457C14.3516 21.0457 23.3288 21.0457 25.5662 20.4475C26.7991 20.1187 27.7717 19.1461 28.105 17.9087C28.7032 15.6713 28.7032 11 28.7032 11C28.7032 11 28.7032 6.32878 28.105 4.09133Z" fill="#FF0000"/>
<path d="M11.4839 15.306L18.9405 11L11.4839 6.69409V15.306Z" fill="white"/>
</svg>
